<svg width="139" height="26" viewBox="0 0 139 26" fill="none" xmlns="http://www.w3.org/2000/svg">
<path d="M64.5931 10.7056L64.9015 10.312L64.5931 10.7056ZM138.492 19.0141C138.541 18.7422 138.359 18.4826 138.088 18.4343L133.657 17.6465C133.385 17.5982 133.126 17.7794 133.077 18.0513C133.029 18.3231 133.21 18.5827 133.482 18.6311L137.42 19.3313L136.72 23.2695C136.672 23.5414 136.853 23.801 137.125 23.8493C137.397 23.8977 137.656 23.7165 137.705 23.4446L138.492 19.0141ZM1.23237 11.1483C1.51795 10.9984 1.80786 10.8479 2.10198 10.6971L1.64564 9.8073C1.34867 9.9596 1.05595 10.1115 0.767626 10.2629L1.23237 11.1483ZM3.86985 9.81188C4.45114 9.52782 5.04643 9.24383 5.65493 8.96121L5.2337 8.05426C4.61906 8.33973 4.01783 8.62656 3.43081 8.91341L3.86985 9.81188ZM7.45229 8.14827C8.04595 7.88697 8.65057 7.628 9.26549 7.37244L8.88172 6.44901C8.26022 6.7073 7.64925 6.969 7.04944 7.23301L7.45229 8.14827ZM11.095 6.63485C11.7014 6.39793 12.3167 6.1651 12.9402 5.9373L12.5971 4.99802C11.9664 5.22843 11.3442 5.46388 10.7311 5.70341L11.095 6.63485ZM14.8005 5.28166C15.4184 5.0719 16.0435 4.86771 16.6753 4.66994L16.3766 3.7156C15.737 3.91582 15.1043 4.12249 14.479 4.33474L14.8005 5.28166ZM18.5641 4.10426C19.1923 3.92464 19.8265 3.75192 20.4661 3.58688L20.2163 2.6186C19.5681 2.78585 18.9256 2.96085 18.2892 3.14278L18.5641 4.10426ZM22.3806 3.12021C23.0181 2.97402 23.6603 2.83597 24.3068 2.7068L24.1109 1.72618C23.4549 1.85724 22.8035 1.99727 22.1571 2.14552L22.3806 3.12021ZM26.2434 2.34931C26.8884 2.24013 27.5372 2.1403 28.1893 2.05051L28.0529 1.05986C27.3904 1.15108 26.7314 1.25249 26.0765 1.36333L26.2434 2.34931ZM30.1427 1.8133C30.7929 1.74501 31.4461 1.6872 32.1016 1.64056L32.0307 0.643081C31.3637 0.690539 30.6994 0.749335 30.0382 0.818764L30.1427 1.8133ZM34.0647 1.53516C34.7178 1.51164 35.3729 1.4997 36.0296 1.50001L36.0301 0.500006C35.3609 0.499697 34.6937 0.51186 34.0287 0.535811L34.0647 1.53516ZM37.9937 1.53789C38.6462 1.56292 39.2998 1.60057 39.9543 1.65146L40.0318 0.654474C39.364 0.602544 38.6973 0.564149 38.0321 0.538626L37.9937 1.53789ZM41.9081 1.84314C42.5557 1.92003 43.2037 2.01046 43.8518 2.11503L44.0111 1.1278C43.349 1.02097 42.6871 0.92862 42.026 0.850115L41.9081 1.84314ZM45.782 2.46889C46.4201 2.6001 47.0579 2.74561 47.6951 2.90602L47.9392 1.93627C47.2876 1.77225 46.6356 1.62349 45.9835 1.48938L45.782 2.46889ZM49.5873 3.42727C50.2098 3.6138 50.8315 3.81516 51.452 4.03191L51.7818 3.08785C51.147 2.86611 50.5111 2.66013 49.8743 2.46935L49.5873 3.42727ZM53.2867 4.7196C53.8888 4.96095 54.4895 5.21744 55.0886 5.48959L55.5022 4.57913C54.8893 4.30072 54.2747 4.03831 53.6587 3.79139L53.2867 4.7196ZM56.8548 6.34042C57.4327 6.63498 58.0088 6.94477 58.5828 7.27028L59.0761 6.40041C58.4892 6.06757 57.9 5.75075 57.3089 5.44947L56.8548 6.34042ZM60.2707 8.27711C60.819 8.6206 61.3651 8.9791 61.9088 9.35303L62.4755 8.52908C61.92 8.14709 61.362 7.78077 60.8016 7.42969L60.2707 8.27711ZM63.4992 10.4965C63.7617 10.6936 64.0235 10.8945 64.2847 11.0991L64.9015 10.312C64.6349 10.1031 64.3676 9.89809 64.0997 9.69687L63.4992 10.4965ZM64.2847 11.0991C64.555 11.311 64.8272 11.5201 65.101 11.7265L65.703 10.928C65.4341 10.7253 65.1669 10.5199 64.9015 10.312L64.2847 11.0991ZM66.7653 12.9339C67.3278 13.3267 67.897 13.7089 68.4722 14.0808L69.0151 13.241C68.4497 12.8754 67.8904 12.4998 67.3377 12.114L66.7653 12.9339ZM70.2177 15.1668C70.8058 15.5189 71.3995 15.8608 71.9984 16.1926L72.4831 15.318C71.8938 14.9914 71.3097 14.6551 70.7313 14.3088L70.2177 15.1668ZM73.8113 17.159C74.421 17.4715 75.0355 17.7742 75.6541 18.0671L76.0821 17.1633C75.4727 16.8748 74.8677 16.5768 74.2674 16.2691L73.8113 17.159ZM77.5236 18.9176C78.1511 19.1917 78.7824 19.4563 79.4169 19.7115L79.7901 18.7837C79.1645 18.5321 78.5423 18.2713 77.9239 18.0012L77.5236 18.9176ZM81.3321 20.45C81.9746 20.6873 82.6199 20.9154 83.2675 21.1345L83.5879 20.1872C82.9489 19.9711 82.3123 19.746 81.6786 19.512L81.3321 20.45ZM85.2202 21.7656C85.8744 21.9674 86.5305 22.1602 87.1879 22.3443L87.4575 21.3814C86.8084 21.1996 86.1607 21.0092 85.515 20.81L85.2202 21.7656ZM89.1704 22.8722C89.8348 23.0401 90.5002 23.1993 91.1659 23.35L91.3867 22.3746C90.7289 22.2257 90.0717 22.0685 89.4154 21.9027L89.1704 22.8722ZM93.1715 23.7781C93.8429 23.913 94.5142 24.0394 95.185 24.1575L95.3584 23.1726C94.6954 23.0559 94.0319 22.931 93.3684 22.7977L93.1715 23.7781ZM97.2095 24.4894C97.8881 24.5924 98.5655 24.6872 99.2413 24.7738L99.3684 23.7819C98.7002 23.6963 98.0305 23.6026 97.3597 23.5007L97.2095 24.4894ZM101.277 25.0111C101.959 25.0826 102.639 25.146 103.316 25.2014L103.398 24.2047C102.728 24.1499 102.056 24.0872 101.382 24.0165L101.277 25.0111ZM105.362 25.3454C106.049 25.3858 106.733 25.4182 107.412 25.4426L107.448 24.4433C106.776 24.4191 106.1 24.3871 105.421 24.3471L105.362 25.3454ZM109.462 25.4927C110.151 25.5016 110.834 25.5023 111.511 25.4952L111.501 24.4952C110.831 24.5023 110.156 24.5015 109.475 24.4928L109.462 25.4927ZM113.558 25.4494C114.248 25.4257 114.932 25.3938 115.608 25.3539L115.549 24.3556C114.881 24.395 114.206 24.4266 113.524 24.45L113.558 25.4494ZM117.657 25.2071C118.348 25.1487 119.029 25.0819 119.701 25.007L119.59 24.0132C118.927 24.0871 118.255 24.153 117.573 24.2106L117.657 25.2071ZM121.739 24.7512C122.427 24.6547 123.104 24.5495 123.768 24.436L123.6 23.4503C122.946 23.5621 122.279 23.6657 121.6 23.7608L121.739 24.7512ZM125.788 24.0569C126.473 23.9165 127.143 23.7667 127.796 23.608L127.559 22.6363C126.919 22.7921 126.261 22.9392 125.587 23.0773L125.788 24.0569ZM129.787 23.0813C130.466 22.8864 131.123 22.6812 131.756 22.4661L131.435 21.5192C130.817 21.7289 130.175 21.9294 129.511 22.1201L129.787 23.0813ZM133.694 21.7481C134.356 21.4801 134.987 21.1998 135.582 20.908L135.142 20.01C134.57 20.2905 133.961 20.5612 133.319 20.8211L133.694 21.7481ZM137.417 19.9047C137.719 19.7191 138.009 19.5297 138.286 19.3365L137.714 18.5166C137.454 18.6977 137.181 18.8763 136.894 19.0521L137.417 19.9047Z" fill="black"/>
</svg>
